<?xml version="1.0" standalone="no"?>
<!DOCTYPE svg PUBLIC "-//W3C//DTD SVG 20010904//EN"
 "http://www.w3.org/TR/2001/REC-SVG-20010904/DTD/svg10.dtd">
<svg version="1.0" xmlns="http://www.w3.org/2000/svg"
 width="314.000000pt" height="312.000000pt" viewBox="0 0 314.000000 312.000000"
 preserveAspectRatio="xMidYMid meet">

<g transform="translate(0.000000,312.000000) scale(0.100000,-0.100000)"
fill="#000000" stroke="none">
<path d="M0 2080 l0 -1040 37 0 c35 0 36 -1 17 -16 -18 -15 -18 -15 6 -10 14
3 29 6 33 6 5 0 5 5 2 10 -4 6 10 9 37 9 30 -2 35 -3 16 -6 -34 -5 -38 -26 -4
-21 13 1 31 -4 41 -12 28 -23 131 -10 121 16 -3 7 4 18 14 24 15 8 20 21 20
55 0 25 4 45 10 45 6 0 8 15 4 35 -6 42 20 130 48 162 11 12 17 26 14 32 -4 5
7 11 26 13 23 2 36 10 43 26 7 16 17 22 35 20 23 -3 25 -7 26 -60 0 -31 5 -62
11 -70 6 -7 14 -32 18 -54 3 -23 26 -77 51 -120 24 -42 44 -82 44 -88 0 -6 11
-28 25 -48 14 -20 25 -39 25 -42 0 -12 64 -98 76 -103 29 -11 13 -25 -23 -20
-56 8 -386 81 -416 92 -9 4 -21 -3 -31 -17 -17 -25 -22 -73 -6 -63 5 3 84 -12
175 -34 122 -30 186 -41 243 -41 43 0 101 -7 128 -15 37 -10 69 -12 129 -6 85
9 105 3 105 -30 0 -12 7 -19 20 -19 11 0 20 -4 20 -10 0 -5 11 -10 24 -10 28
0 42 -16 38 -43 -2 -10 2 -24 8 -32 8 -10 7 -21 -4 -44 -9 -16 -16 -37 -16
-45 0 -24 -61 -53 -147 -69 -45 -9 -97 -22 -115 -31 -18 -8 -43 -17 -55 -21
-13 -3 -23 -11 -23 -16 0 -6 -14 -7 -35 -3 -31 5 -35 4 -35 -15 0 -17 -6 -21
-34 -21 -18 0 -39 7 -47 16 -7 9 -21 13 -35 10 -13 -4 -27 0 -34 9 -7 9 -21
14 -30 13 -9 -2 -24 3 -33 11 -10 8 -27 11 -41 7 -25 -6 -31 -21 -57 -163
l-12 -63 -71 -1 c-39 -1 -80 -3 -91 -4 -11 -1 -35 -2 -52 -3 -54 -3 -75 -33
-71 -100 l3 -57 1210 -2 1210 -3 43 73 c39 65 42 76 37 117 -4 25 -11 50 -16
55 -6 6 -49 12 -96 15 -72 4 -87 8 -89 23 -1 9 1 17 5 17 5 0 16 20 27 45 10
25 24 45 32 45 7 0 11 4 8 9 -3 5 1 14 9 21 8 7 15 21 15 31 0 11 7 19 16 19
8 0 12 5 9 11 -4 6 3 21 15 34 12 13 19 28 15 34 -7 12 40 63 68 74 11 4 21
16 24 28 5 20 6 20 23 1 10 -10 20 -27 22 -38 2 -13 16 -21 46 -26 23 -4 46
-10 52 -13 21 -13 40 -72 40 -125 0 -32 7 -74 16 -95 9 -22 13 -49 9 -65 -3
-16 -2 -31 4 -35 6 -3 11 -15 11 -26 0 -11 14 -34 30 -51 17 -16 30 -34 30
-39 0 -5 12 -15 26 -21 19 -9 24 -17 20 -33 -4 -17 1 -25 21 -34 20 -9 24 -15
14 -21 -21 -12 -3 -30 30 -30 l29 0 0 809 0 809 -25 4 c-17 4 -25 1 -25 -8 0
-8 -4 -14 -9 -14 -5 0 -18 -3 -28 -6 -14 -5 -15 -4 -4 4 22 15 5 40 -29 44
l-30 3 25 27 c30 32 30 35 8 35 -64 -1 -103 4 -103 13 0 6 35 10 84 10 87 0
108 8 81 30 -10 8 -13 21 -9 33 4 13 2 17 -5 13 -6 -4 -11 -14 -11 -22 0 -16
-41 -18 -75 -4 l-20 8 20 8 c11 4 29 16 40 26 10 10 24 17 29 15 13 -4 46 30
46 48 0 8 9 15 20 15 19 0 20 7 20 236 l0 237 -47 -7 c-27 -3 -104 -8 -173
-12 -69 -3 -147 -9 -173 -15 -61 -12 -147 -12 -147 0 0 14 38 19 225 31 94 6
177 14 185 17 8 3 41 5 73 4 l57 -3 0 366 0 366 -1570 0 -1570 0 0 -1040z
m1505 980 c5 -7 11 -8 19 -1 26 21 66 0 66 -35 l0 -25 22 20 c28 27 59 36 68
21 6 -9 11 -7 18 6 10 17 12 18 24 3 17 -21 50 -29 71 -17 12 6 19 3 27 -12 7
-12 16 -18 23 -13 7 4 32 11 57 15 25 4 81 14 125 23 101 21 93 21 140 0 22
-10 46 -17 53 -16 8 1 19 -4 25 -12 7 -8 35 -20 62 -28 55 -14 71 -26 77 -55
2 -11 11 -18 21 -16 9 2 17 -1 17 -7 0 -5 12 -23 26 -40 14 -17 26 -39 27 -51
1 -11 6 -20 12 -20 7 0 11 -21 10 -55 0 -30 -4 -55 -8 -55 -4 0 -18 7 -32 16
-23 15 -27 15 -50 0 -31 -21 -35 -20 -35 4 0 18 -5 19 -67 14 -55 -5 -65 -4
-61 8 12 29 -24 56 -86 63 -38 4 -56 3 -52 -3 6 -10 -40 -25 -60 -21 -15 4
-67 -21 -85 -39 -9 -9 -37 -35 -63 -56 -48 -40 -57 -56 -31 -56 8 0 15 -4 15
-10 0 -5 -6 -10 -14 -10 -22 0 -28 -69 -9 -113 14 -31 21 -37 38 -32 40 13 50
9 65 -22 10 -21 19 -30 27 -25 7 5 28 6 47 4 34 -4 34 -4 23 -35 -6 -18 -17
-38 -24 -45 -8 -8 -11 -23 -7 -38 4 -16 2 -24 -7 -24 -11 0 -11 -2 1 -10 8 -5
24 -7 34 -4 15 5 18 3 13 -10 -5 -12 0 -16 16 -17 l22 0 -22 -9 c-13 -5 -23
-14 -23 -20 0 -6 -12 -22 -26 -37 -30 -30 -27 -42 3 -13 12 10 24 16 27 13 3
-4 6 1 6 9 0 16 77 75 86 65 3 -3 -4 -8 -15 -12 -22 -7 -30 -35 -10 -35 6 0 9
-6 6 -14 -5 -14 31 -36 58 -36 8 0 15 -7 15 -15 0 -8 -4 -15 -10 -15 -5 0 -10
-5 -10 -12 0 -7 7 -5 18 5 10 9 23 13 30 8 10 -6 9 -11 -3 -21 -16 -13 -16
-15 1 -20 14 -5 11 -10 -18 -28 -43 -27 -62 -29 -28 -2 30 23 22 34 -15 20
-23 -9 -26 -8 -21 5 5 13 1 15 -17 9 -42 -12 -65 -44 -32 -44 8 0 15 5 15 10
0 6 5 10 12 10 6 0 -1 -13 -17 -30 l-28 -29 25 -10 c49 -18 105 -11 134 18 23
22 35 26 90 27 53 0 60 -2 46 -12 -9 -8 -23 -14 -29 -14 -7 0 -13 -7 -13 -15
0 -11 -11 -15 -39 -15 -22 0 -43 -4 -46 -10 -3 -5 -1 -10 4 -10 6 0 11 -6 11
-13 0 -9 10 -12 33 -10 27 3 29 2 11 -6 -35 -15 -42 -35 -10 -27 41 10 31 -12
-11 -23 -21 -6 -45 -11 -53 -12 -10 0 -8 -3 5 -9 15 -6 16 -9 4 -9 -12 -1 -14
-9 -11 -33 3 -20 0 -35 -9 -42 -8 -6 -14 -18 -14 -26 0 -11 -10 -15 -37 -14
-26 1 -38 -3 -38 -12 0 -8 -5 -14 -12 -14 -6 0 -9 -3 -5 -6 14 -14 -24 -34
-76 -40 -47 -6 -57 -4 -76 15 -11 11 -28 21 -36 21 -18 0 -109 -42 -113 -52
-2 -5 -28 -8 -58 -8 -41 0 -54 4 -54 15 0 9 -9 15 -22 15 -17 0 -19 -3 -10
-12 18 -18 15 -51 -3 -44 -9 3 -15 0 -15 -10 0 -10 7 -13 28 -8 l27 5 -24 -20
c-24 -22 -51 -28 -51 -12 0 5 -11 8 -25 7 -14 -2 -30 3 -36 10 -13 16 -9 17
24 5 23 -9 24 -8 24 36 0 42 -3 46 -33 59 -18 8 -35 18 -39 23 -6 11 -45 -22
-45 -38 0 -5 18 -7 40 -4 26 4 40 2 40 -6 0 -6 -8 -11 -18 -11 -19 0 -42 -18
-42 -32 0 -4 7 -8 16 -8 11 0 15 -6 11 -20 -3 -11 0 -20 6 -20 7 0 3 -7 -8
-16 -12 -9 -37 -14 -65 -13 -25 2 -69 2 -99 1 -43 -2 -52 -5 -47 -17 3 -8 9
-22 12 -30 11 -26 -17 -16 -44 16 -15 17 -52 47 -82 67 -51 34 -58 37 -120 33
-105 -5 -110 -6 -110 -13 0 -14 -57 -8 -70 7 -12 15 -35 11 -25 -5 3 -5 -7
-10 -22 -12 -32 -4 -44 -28 -14 -28 14 0 21 -6 21 -20 0 -24 39 -42 76 -36 18
4 31 -2 47 -21 12 -15 34 -40 49 -57 14 -18 48 -42 74 -55 39 -20 52 -22 73
-14 94 39 137 60 146 71 15 19 58 6 91 -29 15 -16 36 -29 45 -29 10 0 21 -4
24 -10 3 -5 17 -10 31 -10 15 0 24 -6 24 -15 0 -8 3 -15 6 -15 11 0 89 45 92
53 7 14 18 7 35 -23 10 -16 24 -30 31 -30 17 0 79 -31 88 -43 7 -12 99 -1 108
12 8 15 158 53 178 47 13 -4 27 4 45 24 33 37 45 38 57 4 8 -19 16 -25 30 -21
21 6 31 -12 23 -42 -4 -15 -13 -21 -34 -21 -15 0 -30 -4 -33 -8 -3 -5 -42 -22
-88 -37 -90 -31 -143 -70 -132 -98 3 -9 15 -17 25 -17 12 0 19 -7 19 -19 0
-12 -14 -23 -43 -35 -23 -9 -46 -16 -51 -16 -4 0 -26 -14 -47 -31 -21 -17 -39
-26 -39 -20 0 5 4 12 9 15 17 11 19 45 3 51 -9 3 -13 3 -10 -1 4 -3 1 -13 -7
-21 -8 -8 -15 -27 -15 -43 0 -55 -63 -44 -75 13 -9 40 -22 57 -39 51 -8 -3
-16 1 -19 9 -3 8 -16 13 -29 11 -12 -1 -29 -3 -36 -3 -7 -1 -18 -12 -24 -26
-14 -32 -28 -32 -28 0 0 14 -4 25 -10 25 -5 0 -7 6 -4 14 3 8 -4 24 -15 35
-22 22 -37 28 -26 11 3 -5 -5 -15 -17 -22 -13 -7 -23 -20 -23 -28 0 -23 46
-70 67 -70 11 0 16 -4 12 -11 -9 -15 -63 -3 -89 20 -28 26 -58 31 -75 13 -18
-20 -19 -86 -3 -129 7 -18 13 -34 13 -36 0 -9 -54 0 -57 9 -5 15 -43 5 -43
-11 0 -7 -11 -20 -25 -29 -19 -13 -30 -14 -45 -6 -12 6 -20 7 -20 1 0 -5 -3
-16 -6 -25 -4 -11 -1 -16 10 -16 18 0 19 -2 10 -24 -6 -17 -44 -23 -44 -7 0 5
-18 11 -40 15 -21 3 -47 14 -57 25 -10 10 -35 26 -55 36 -21 9 -40 24 -43 33
-2 10 -18 26 -35 37 -19 13 -28 26 -25 36 3 9 -1 22 -10 29 -8 7 -15 19 -15
27 0 10 -6 13 -16 9 -11 -4 -15 -2 -11 8 4 9 -2 17 -14 21 -15 5 -17 10 -9 20
8 10 4 18 -16 34 -22 17 -24 24 -14 36 6 8 9 19 5 25 -4 7 8 27 26 46 28 29
31 36 19 44 -8 5 -21 10 -27 10 -7 0 -13 4 -13 9 0 5 -8 7 -19 4 -10 -3 -22 0
-25 6 -4 6 -23 11 -42 11 -24 0 -37 5 -41 18 -4 9 -11 22 -15 27 -4 6 -19 24
-33 41 -14 18 -25 43 -25 56 0 41 -23 78 -43 72 -25 -8 -51 14 -37 31 8 9 8
15 0 20 -6 3 -8 10 -5 15 3 5 -7 16 -23 24 -18 9 -36 31 -45 54 -9 22 -27 48
-40 59 -21 16 -40 50 -42 75 0 3 -3 10 -7 14 -17 16 -8 73 12 84 23 12 26 37
6 59 -23 26 -7 93 27 109 15 7 27 16 28 20 5 43 4 52 -3 52 -5 0 -6 5 -3 10 4
6 2 17 -5 25 -7 8 -9 32 -6 61 3 29 0 54 -6 62 -7 7 -12 39 -11 70 0 66 4 90
19 117 12 22 29 112 25 134 -1 8 5 29 15 47 17 31 17 34 1 52 -22 24 -22 34 0
31 40 -4 45 0 38 30 -5 23 -2 29 14 34 12 3 24 20 32 46 7 22 16 41 21 41 4 0
8 9 8 20 0 11 7 20 15 20 7 0 18 6 22 13 10 16 49 37 67 37 8 0 16 5 18 12 2
6 28 13 58 15 29 2 61 10 70 18 15 13 23 13 71 -1 30 -8 61 -18 69 -21 8 -3
18 -5 23 -5 4 1 24 -5 43 -13 48 -20 57 -19 49 5 -3 11 -2 27 3 36 7 13 11 14
23 2 16 -15 126 -21 134 -7 4 5 17 9 31 9 13 0 24 5 24 10 0 6 9 10 19 10 11
0 22 4 25 9 3 5 15 7 25 4 10 -3 22 0 25 5 3 6 15 8 25 5 10 -3 22 0 25 6 9
14 33 14 41 1z m765 -374 c0 -3 -4 -8 -10 -11 -5 -3 -10 -1 -10 4 0 6 5 11 10
11 6 0 10 -2 10 -4z m254 -131 c-4 -8 -8 -15 -10 -15 -2 0 -4 7 -4 15 0 8 4
15 10 15 5 0 7 -7 4 -15z m556 -60 c0 -8 -4 -15 -10 -15 -5 0 -7 7 -4 15 4 8
8 15 10 15 2 0 4 -7 4 -15z m-33 -67 c-3 -8 -6 -5 -6 6 -1 11 2 17 5 13 3 -3
4 -12 1 -19z m-91 -598 c19 -8 24 -14 17 -21 -11 -11 -53 8 -53 23 0 10 3 10
36 -2z m-41 -40 c3 -5 1 -10 -4 -10 -6 0 -11 5 -11 10 0 6 2 10 4 10 3 0 8 -4
11 -10z m-270 -30 c3 -5 1 -10 -4 -10 -6 0 -11 5 -11 10 0 6 2 10 4 10 3 0 8
-4 11 -10z m75 -49 c0 -11 -40 -22 -52 -15 -5 3 -6 10 -3 15 8 12 55 12 55 0z
m30 -71 c8 -5 12 -11 10 -14 -9 -8 -100 6 -94 15 7 12 65 11 84 -1z m-107 -47
c-7 -2 -21 -2 -30 0 -10 3 -4 5 12 5 17 0 24 -2 18 -5z m-1038 -63 c3 -6 -1
-7 -9 -4 -18 7 -21 14 -7 14 6 0 13 -4 16 -10z m725 -70 c0 -5 -7 -10 -15 -10
-8 0 -15 5 -15 10 0 6 7 10 15 10 8 0 15 -4 15 -10z m476 -34 c5 -20 -21 -116
-31 -116 -1 0 -17 8 -36 18 -19 9 -50 22 -69 27 -36 11 -55 45 -26 45 9 0 16
6 16 13 0 19 32 32 90 35 45 2 50 1 56 -22z m-536 -31 c0 -15 -19 -24 -38 -17
-10 3 -9 8 4 23 18 20 34 17 34 -6z m384 -90 c-5 -22 -3 -25 17 -23 20 3 24
-3 31 -41 4 -26 3 -51 -3 -62 -9 -17 -6 -19 23 -19 l33 -1 -27 -24 c-34 -29
-35 -35 -5 -35 46 0 68 -12 66 -34 -1 -11 1 -29 6 -38 4 -10 5 -24 2 -32 -4
-9 5 -19 24 -26 26 -11 28 -16 23 -49 -4 -27 -2 -41 10 -50 34 -29 8 -71 -43
-71 -18 0 -21 6 -21 41 0 36 -2 40 -15 29 -9 -8 -15 -8 -15 -2 0 6 -8 18 -17
28 -21 20 -22 26 -31 122 -1 11 -14 24 -28 31 -22 10 -25 16 -19 41 6 25 3 31
-17 39 -13 5 -26 7 -30 5 -3 -2 -4 23 -1 56 4 41 2 64 -7 75 -11 13 -9 20 10
40 30 32 42 32 34 0z m-1179 -325 c3 -5 1 -10 -4 -10 -6 0 -11 5 -11 10 0 6 2
10 4 10 3 0 8 -4 11 -10z m1373 -227 c-2 -20 -9 -29 -26 -31 -13 -2 -28 -14
-34 -28 -6 -13 -15 -24 -20 -24 -15 0 -9 48 7 54 8 3 20 17 25 31 6 16 17 25
30 25 17 0 21 -5 18 -27z m-1564 3 c-10 -8 -21 -12 -24 -10 -5 6 21 24 34 24
6 0 1 -6 -10 -14z m-529 -615 c17 -7 64 -16 105 -18 94 -6 104 -13 19 -13 -36
0 -100 -4 -144 -10 -44 -5 -163 -14 -265 -20 -102 -6 -198 -12 -215 -13 -29
-2 -30 0 -30 38 l0 40 130 6 c203 9 366 5 400 -10z"/>
<path d="M854 2739 c-3 -6 -18 -9 -32 -8 -15 1 -38 1 -52 0 -24 -2 -24 -2 -6
-16 21 -16 21 -17 -12 -35 -16 -8 -22 -18 -19 -30 3 -13 -5 -22 -34 -33 -35
-14 -53 -37 -29 -37 14 0 12 -28 -3 -37 -7 -4 -18 -21 -25 -36 -9 -21 -9 -26
-1 -21 8 5 9 3 4 -6 -18 -29 -24 -178 -8 -188 9 -6 27 -48 26 -62 -2 -19 42
-58 75 -68 45 -14 85 -16 78 -4 -2 4 14 6 37 3 37 -3 40 -2 28 13 -7 9 -21 16
-30 16 -14 1 -14 2 2 11 10 6 31 8 46 4 42 -9 46 9 9 40 -25 21 -28 26 -12 25
35 -4 46 0 41 15 -8 20 9 28 33 15 15 -8 20 -8 21 2 1 7 2 20 3 28 1 19 78 32
111 20 16 -6 25 -6 25 0 0 6 6 10 14 10 7 0 16 14 20 30 4 22 11 30 26 30 16
0 21 6 20 23 -4 39 0 57 10 57 6 0 10 -7 10 -15 0 -31 19 -14 25 23 4 20 9 49
11 64 4 20 0 29 -15 38 -12 6 -21 17 -21 25 0 8 -9 19 -20 25 -24 13 -26 30
-5 30 8 0 15 5 15 10 0 13 -76 13 -99 0 -13 -7 -23 -4 -38 10 -12 10 -23 16
-26 14 -3 -3 -16 0 -28 7 -28 15 -167 21 -175 8z"/>
<path d="M2003 1937 c-10 -12 -11 -17 -3 -10 8 6 24 13 35 15 17 3 18 5 3 10
-10 4 -23 -1 -35 -15z"/>
<path d="M1787 1794 c-11 -12 3 -24 29 -24 27 0 32 15 8 24 -20 8 -29 8 -37 0z"/>
<path d="M1800 1747 c0 -8 15 -21 33 -28 17 -7 35 -14 40 -17 4 -2 7 1 7 7 0
6 -5 11 -11 11 -6 0 -24 9 -40 21 -23 16 -29 17 -29 6z"/>
<path d="M1760 1676 c0 -2 7 -6 15 -10 8 -3 15 -1 15 4 0 6 -7 10 -15 10 -8 0
-15 -2 -15 -4z"/>
<path d="M1360 1660 c-13 -8 -12 -10 3 -10 9 0 17 5 17 10 0 12 -1 12 -20 0z"/>
<path d="M1445 1660 c-3 -5 1 -10 9 -10 9 0 16 5 16 10 0 6 -4 10 -9 10 -6 0
-13 -4 -16 -10z"/>
<path d="M1492 1628 c6 -18 28 -21 28 -4 0 9 -7 16 -16 16 -9 0 -14 -5 -12
-12z"/>
<path d="M1480 1591 c0 -5 7 -12 16 -15 21 -8 21 -8 28 9 4 11 -1 15 -19 15
-14 0 -25 -4 -25 -9z"/>
<path d="M1538 1150 c2 -16 9 -30 14 -30 6 0 7 7 4 16 -3 9 -6 22 -6 30 0 8
-4 14 -8 14 -5 0 -7 -13 -4 -30z"/>
<path d="M1145 1061 c-25 -10 -62 -51 -47 -51 16 0 82 41 82 51 0 11 -8 11
-35 0z"/>
<path d="M3028 1803 c7 -3 16 -2 19 1 4 3 -2 6 -13 5 -11 0 -14 -3 -6 -6z"/>
<path d="M3125 1740 c-3 -5 -1 -10 4 -10 6 0 11 5 11 10 0 6 -2 10 -4 10 -3 0
-8 -4 -11 -10z"/>
<path d="M3052 1688 c3 -7 12 -14 21 -16 12 -2 15 1 11 12 -7 19 -38 22 -32 4z"/>
<path d="M106 945 c-11 -8 -15 -15 -9 -15 19 0 43 12 43 21 0 13 -12 11 -34
-6z"/>
<path d="M128 683 c7 -3 16 -2 19 1 4 3 -2 6 -13 5 -11 0 -14 -3 -6 -6z"/>
<path d="M7 638 c2 -5 29 -8 60 -8 31 0 54 2 51 5 -8 9 -117 11 -111 3z"/>
<path d="M160 640 c0 -6 11 -8 28 -4 39 10 40 14 4 14 -18 0 -32 -5 -32 -10z"/>
<path d="M288 643 c7 -3 16 -2 19 1 4 3 -2 6 -13 5 -11 0 -14 -3 -6 -6z"/>
<path d="M85 580 c21 -9 102 -13 93 -5 -2 3 -29 7 -59 9 -36 3 -47 2 -34 -4z"/>
<path d="M8 573 c7 -3 16 -2 19 1 4 3 -2 6 -13 5 -11 0 -14 -3 -6 -6z"/>
<path d="M108 503 c7 -3 16 -2 19 1 4 3 -2 6 -13 5 -11 0 -14 -3 -6 -6z"/>
<path d="M13 443 c9 -9 20 -13 24 -9 4 4 1 11 -7 16 -25 16 -35 11 -17 -7z"/>
<path d="M90 410 c0 -5 5 -10 10 -10 21 0 9 -19 -17 -28 -26 -10 -25 -10 17
-11 25 0 53 4 63 7 17 7 16 9 -3 30 -21 22 -70 31 -70 12z"/>
<path d="M314 291 c3 -5 29 -9 58 -9 37 1 47 3 33 9 -28 11 -97 11 -91 0z"/>
<path d="M268 213 c6 -2 18 -2 25 0 6 3 1 5 -13 5 -14 0 -19 -2 -12 -5z"/>
</g>
</svg>
